<svg viewBox="0 0 259.72935 143.82753" xmlns="http://www.w3.org/2000/svg"><circle cx="202.44414" cy="65.07048" fill="#1c3f94" r="20.53276"/><circle cx="202.44414" cy="65.07048" fill="#fff203" r="18.84095"/><g fill="#1c3f94"><path d="m38.45112 103.23301h2.04175c.84343 0 1.312.20587 1.67764.54693.41019.38868.59301.93561.59301 1.51786 0 .84343-.39944 1.65307-1.57471 1.90502v.02304c.47933.09218.7067.31955.86648.77583l1.11843 3.19398h-1.08463l-.91256-2.69314c-.22891-.66215-.51313-.91257-1.26591-.91257h-.45628v3.60417h-1.00321v-7.96266.00153zm1.00474 3.53658h.77583c1.07234 0 1.48253-.7067 1.48253-1.40265 0-.89105-.58226-1.31201-1.45949-1.31201h-.79888v2.71465z"/><path d="m44.90667 108.57166c0 1.34734.52388 1.97415 1.58547 1.97415.47933 0 1.00474-.23966 1.33505-.47933l.04609.86801c-.45628.21662-1.0493.3426-1.63156.3426-1.54091 0-2.33826-1.16452-2.33826-2.98811s.79888-2.98811 2.24761-2.98811c1.312 0 2.04175 1.04929 2.04175 2.76074v.51313h-3.28616v-.00308zm2.3275-.72974c0-1.20907-.37639-1.81284-1.14147-1.81284-.61606 0-1.16298.45628-1.18603 1.81284z"/><path d="m48.99939 110.06649c.43324.26271.88952.43324 1.36885.43324.72974 0 1.10614-.3764 1.10614-.82039 0-.39944-.20587-.6729-.74204-.91257l-.6391-.28576c-.83268-.37639-1.13994-.75279-1.13994-1.49482 0-.95712.74204-1.6884 1.87122-1.6884.47933 0 .90181.07989 1.23212.20587l-.04609.82039c-.29651-.13673-.7067-.25196-1.13994-.25196-.62681 0-.95865.3426-.95865.79888s.3426.72974.98016.9817l.3426.13673c.7067.28575 1.15223.76508 1.15223 1.48407 0 1.00321-.53617 1.80208-1.87122 1.80208-.60377 0-1.15223-.12597-1.57471-.34259l.05684-.86802.00154.00154z"/><path d="m54.19054 108.57166c0 1.34734.52388 1.97415 1.58547 1.97415.47933 0 1.00474-.23966 1.33505-.47933l.04609.86801c-.45628.21662-1.0493.3426-1.63156.3426-1.54091 0-2.33824-1.16452-2.33824-2.98811s.79886-2.98811 2.2476-2.98811c1.312 0 2.04175 1.04929 2.04175 2.76074v.51313h-3.28616zm2.3275-.72974c0-1.20907-.37639-1.81284-1.14147-1.81284-.61606 0-1.16298.45628-1.18603 1.81284z"/><path d="m58.76258 105.77713c.47933-.30726 1.07234-.47933 1.64231-.47933.85572 0 1.36885.36411 1.55167.54692.25195.25042.50237.60377.50237 1.4257v3.0342c0 .34259.02305.68365.04609.88952h-.86801l-.05684-.78659h-.02304c-.26271.44553-.74204.86648-1.63155.86648-.95865 0-1.67764-.55922-1.67764-1.67765s.74203-1.96186 2.73769-1.96186h.55921v-.26117c0-.43324-.0338-.68366-.21662-.93561-.19357-.26271-.56997-.36564-.96941-.36564-.59301 0-1.16298.23966-1.49482.6053l-.10293-.90181.00154.00154zm2.78378 2.56716c-.17053-.02304-.41173-.02304-.6729-.02304-1.12918 0-1.66535.53617-1.66535 1.20907 0 .61605.31955 1.0155.9817 1.0155.83268 0 1.35809-.6729 1.35809-1.47178v-.72974h-.00154z"/><path d="m63.81395 106.63285c0-.42248-.0338-.84343-.04609-1.25516h.92332l.0338.91257h.02305c.30726-.70824.79888-.99246 1.6546-.99246v.94636c-.11369-.02304-.23966-.0338-.36564-.0338-.74204 0-1.26592.6391-1.26592 1.90655v3.08029h-.95865v-4.56283l.00154-.00154z"/><path d="m70.6121 106.39319c-.33031-.18282-.66215-.27346-1.10614-.27346-.93561 0-1.59776.64986-1.59776 2.22457 0 1.3458.6391 2.11088 1.57471 2.11088.45628 0 .84497-.13673 1.17527-.30726l.04609.87877c-.28575.12444-.79888.25042-1.22136.25042-1.73449 0-2.57792-1.28896-2.57792-2.9328 0-1.88197.9817-3.04496 2.60096-3.04496.39944 0 .84343.07989 1.15223.22737l-.04609.86647z"/><path d="m71.62606 102.63999h.95865v3.53657h.02304c.25042-.49008.75279-.87723 1.42569-.87723 1.0155 0 1.69915.58072 1.69915 1.85893v4.03895h-.95865v-3.7532c0-.92332-.3426-1.32276-.95865-1.32276-.75279 0-1.23211.52541-1.23211 1.57471v3.50124h-.95865v-8.55568l.00154-.00154z"/><path d="m80.04194 103.23301h1.00474v7.96267h-1.00474z"/><path d="m82.61986 106.63285c0-.42248-.0338-.84343-.04609-1.25516h.92332l.0338.86647h.02304c.30726-.66215.79888-.94636 1.47178-.94636 1.0155 0 1.70069.58072 1.70069 1.85893v4.03895h-.95865v-3.75319c0-.92332-.3426-1.32276-.95865-1.32276-.75279 0-1.23212.52542-1.23212 1.57471v3.50124h-.95865v-4.56283h.00154z"/><path d="m92.30318 110.12333c0 .35335.0338.71899.04609 1.07234h-.92332l-.0338-.85572h-.02305c-.25041.45474-.68519.93561-1.52862.93561-1.19832 0-2.00795-.9817-2.00795-2.98811s.80963-2.98811 2.00795-2.98811c.66215 0 1.09539.26117 1.48253.87723h.02304v-3.53657h.95866v7.48334h-.00154zm-2.23533-4.0497c-.87877 0-1.2782.75279-1.2782 2.21382s.39944 2.21228 1.2782 2.21228 1.27821-.75279 1.27821-2.21228-.39944-2.21382-1.27821-2.21382z"/><path d="m97.70944 109.94051c0 .42248.0338.84497.04609 1.25516h-.92332l-.03379-.86648h-.02305c-.30879.66215-.79888.94636-1.47178.94636-1.0155 0-1.69915-.58226-1.69915-1.86046v-4.03895h.95865v3.75319c0 .92486.3426 1.32276.95865 1.32276.75279 0 1.23212-.52542 1.23212-1.57318v-3.50277h.95865v4.56283l-.00307.00153z"/><path d="m98.84784 110.06649c.43323.26271.88952.43324 1.36885.43324.72974 0 1.10614-.3764 1.10614-.82039 0-.39944-.20586-.6729-.74203-.91257l-.6391-.28576c-.83268-.37639-1.13994-.75279-1.13994-1.49482 0-.95712.74204-1.6884 1.87122-1.6884.47933 0 .90181.07989 1.23212.20587l-.04609.82039c-.29651-.13673-.7067-.25196-1.13994-.25196-.62681 0-.95865.3426-.95865.79888s.34259.72974.98016.9817l.3426.13673c.7067.28575 1.15223.76508 1.15223 1.48407 0 1.00321-.53617 1.80208-1.87122 1.80208-.60377 0-1.15223-.12597-1.57471-.34259l.05684-.86802.00154.00154z"/><path d="m105.88565 111.12654c-.22891.07989-.54692.14902-.80964.14902-.87877 0-1.3458-.35335-1.3458-1.38114v-3.7409h-.92332v-.77583h.92332v-1.18603l.95865-.28422v1.47024h1.19832v.77583h-1.19832v3.43364c0 .66215.17053.91257.60377.91257.23966 0 .41173-.0676.59302-.14902v.77583z"/><path d="m106.69375 106.63285c0-.42248-.0338-.84343-.04609-1.25516h.92332l.0338.91257h.02304c.30726-.70824.79888-.99246 1.6546-.99246v.94636c-.11369-.02304-.23966-.0338-.36564-.0338-.74203 0-1.26591.6391-1.26591 1.90655v3.08029h-.95865v-4.56283l.00153-.00154z"/><path d="m111.16593 102.98105v1.13994h-1.0493v-1.13994zm-1.00321 2.3951h.95865v5.81798h-.95865z"/><path d="m112.82975 105.77713c.47933-.30726 1.07234-.47933 1.64231-.47933.85572 0 1.36885.36411 1.55167.54692.25196.25042.50237.60377.50237 1.4257v3.0342c0 .34259.02305.68365.04609.88952h-.86801l-.05685-.78659h-.02304c-.26271.44553-.74203.86648-1.63155.86648-.95865 0-1.67764-.55922-1.67764-1.67765s.74203-1.96186 2.73769-1.96186h.55922v-.26117c0-.43324-.0338-.68366-.21662-.93561-.19358-.26271-.56997-.36564-.96941-.36564-.59302 0-1.16298.23966-1.49483.6053l-.10293-.90181zm2.78378 2.56716c-.17053-.02304-.41019-.02304-.6729-.02304-1.12918 0-1.66535.53617-1.66535 1.20907 0 .61605.31955 1.0155.9817 1.0155.83268 0 1.35809-.6729 1.35809-1.47178v-.72974h-.00154z"/><path d="m117.97329 102.63999h.95866v8.55568h-.95866z"/><path d="m126.61808 104.38523c-.3764-.22891-.86648-.36564-1.35656-.36564-.75278 0-1.2444.51466-1.2444 1.18603 0 .51466.20587.83267 1.3458 1.49482 1.23212.70824 1.64231 1.40418 1.64231 2.31675 0 1.26591-.78659 2.25836-2.31521 2.25836-.6391 0-1.24287-.13673-1.66536-.34259v-1.03854c.45629.275 1.0493.51466 1.51787.51466.90181 0 1.41494-.6053 1.41494-1.25516s-.15977-.96941-1.23212-1.6208c-1.43798-.86648-1.75753-1.35809-1.75753-2.38435 0-1.312 1.00475-1.9972 2.21382-1.9972.52541 0 1.08463.11369 1.43644.26271v.97094z"/><path d="m130.03789 112.3817c-.28575.99245-.69595 1.3458-1.4257 1.3458-.22891 0-.47933-.02305-.64985-.0676l.04609-.86648c.14749.0676.31955.11369.52542.11369.27346 0 .47933-.12597.6391-.72974l.22891-.89105-1.83741-5.90863h1.00474l1.29972 4.74564h.02304l1.20907-4.74564h.95865l-2.0187 7.00555z"/><path d="m132.60352 110.06649c.43324.26271.88952.43324 1.36884.43324.72974 0 1.10614-.3764 1.10614-.82039 0-.39944-.20587-.6729-.74204-.91257l-.6391-.28576c-.83267-.37639-1.13994-.75279-1.13994-1.49482 0-.95712.74203-1.6884 1.87122-1.6884.47933 0 .90181.07989 1.23211.20587l-.04609.82039c-.29651-.13673-.7067-.25196-1.13994-.25196-.62681 0-.95865.3426-.95865.79888s.34259.72974.98016.9817l.34259.13673c.7067.28575 1.15223.76508 1.15223 1.48407 0 1.00321-.53617 1.80208-1.87122 1.80208-.60377 0-1.15223-.12597-1.57471-.34259l.05684-.86802.00154.00154z"/><path d="m139.64134 111.12654c-.22891.07989-.54692.14902-.80964.14902-.87876 0-1.3458-.35335-1.3458-1.38114v-3.7409h-.92332v-.77583h.92332v-1.18603l.95865-.28422v1.47024h1.19832v.77583h-1.19832v3.43364c0 .66215.17054.91257.60378.91257.23966 0 .41019-.0676.59301-.14902v.77583z"/><path d="m141.16996 108.57166c0 1.34734.52388 1.97415 1.58547 1.97415.47933 0 1.00474-.23966 1.33504-.47933l.0461.86801c-.45629.21662-1.0493.3426-1.63155.3426-1.54092 0-2.33826-1.16452-2.33826-2.98811s.79888-2.98811 2.24761-2.98811c1.312 0 2.04175 1.04929 2.04175 2.76074v.51313h-3.28615v-.00308zm2.3275-.72974c0-1.20907-.3764-1.81284-1.14147-1.81284-.61606 0-1.16298.45628-1.18602 1.81284h2.3275z"/><path d="m145.51309 106.63285c0-.42248-.03379-.84315-.04609-1.25488l.92332-.00028.03379.86647h.02305c.30726-.66215.79888-.94636 1.43644-.94636s1.07235.31802 1.36885.91257c.30726-.56997.75278-.91257 1.41494-.91257 1.00474 0 1.6884.58072 1.6884 1.85893v4.03895h-.95865v-3.99285c0-.74204-.31955-1.08463-.88953-1.08463-.70823 0-1.09539.43323-1.09539 1.48253v3.59341h-.95865v-3.99285c0-.74204-.31955-1.08463-.88952-1.08463-.70671 0-1.09539.43324-1.09539 1.48253v3.59342h-.95865v-4.56283l.00307.00307z"/><path d="m153.49727 110.06649c.43324.26271.88952.43324 1.36884.43324.72974 0 1.10614-.3764 1.10614-.82039 0-.39944-.20587-.6729-.74204-.91257l-.6391-.28576c-.83267-.37639-1.13994-.75279-1.13994-1.49482 0-.95712.74203-1.6884 1.87122-1.6884.47933 0 .90181.07989 1.23211.20587l-.04609.82039c-.29651-.13673-.7067-.25196-1.13994-.25196-.62681 0-.95865.3426-.95865.79888s.34259.72974.98016.9817l.34259.13673c.7067.28575 1.15223.76508 1.15223 1.48407 0 1.00321-.53617 1.80208-1.87122 1.80208-.60377 0-1.15223-.12597-1.57471-.34259l.05684-.86802.00154.00154z"/><path d="m160.88689 103.23301h3.7071v.86648h-2.70389v2.53183h2.57791v.86647h-2.57791v2.82988h2.85138v.86647h-3.85613v-7.96266z"/><path d="m165.98434 106.63285c0-.42248-.03379-.84343-.04609-1.25516h.92332l.03379.86647h.02305c.30726-.66215.79888-.94636 1.47178-.94636 1.0155 0 1.69915.58072 1.69915 1.85893v4.03895h-.95865v-3.75319c0-.92332-.3426-1.32276-.95866-1.32276-.75278 0-1.23211.52542-1.23211 1.57471v3.50124h-.95865v-4.56283z"/><path d="m175.66767 111.44609c0 1.60851-1.20907 2.28141-2.48728 2.28141-.49008 0-1.27821-.18282-1.69915-.35335l.04609-.96941c.41173.27346 1.07234.50237 1.59776.50237 1.17527 0 1.63155-.69595 1.63155-1.69915v-.91257h-.02305c-.3764.66215-.88952.9817-1.52862.9817-1.19832 0-2.00795-.9817-2.00795-2.98811s.80964-2.98811 2.11089-2.98811c.58226 0 1.10613.3641 1.42569.92332h.02305l.03379-.84497h.92332c-.01076.3426-.04609.70824-.04609 1.06159v5.00835zm-2.23532-.94636c.87876 0 1.27821-.75279 1.27821-2.21228s-.39944-2.21382-1.27821-2.21382-1.27821.75279-1.27821 2.21382.39944 2.21228 1.27821 2.21228z"/><path d="m178.06124 102.98105v1.13994h-1.0493v-1.13994zm-1.00321 2.3951h.95865v5.81798h-.95865z"/><path d="m179.49922 106.63285c0-.42248-.0338-.84343-.04609-1.25516h.92331l.0338.86647h.02305c.30726-.66215.79887-.94636 1.47177-.94636 1.0155 0 1.69915.58072 1.69915 1.85893v4.03895h-.95865v-3.75319c0-.92332-.34259-1.32276-.95865-1.32276-.75279 0-1.23212.52542-1.23212 1.57471v3.50124h-.95865v-4.56283z"/><path d="m185.71357 108.57166c0 1.34734.52388 1.97415 1.58546 1.97415.47934 0 1.00475-.23966 1.33505-.47933l.0461.86801c-.45629.21662-1.0493.3426-1.63155.3426-1.54092 0-2.33826-1.16452-2.33826-2.98811s.79888-2.98811 2.24761-2.98811c1.312 0 2.04175 1.04929 2.04175 2.76074v.51313h-3.28615v-.00308zm2.3275-.72974c0-1.20907-.3764-1.81284-1.14147-1.81284-.61606 0-1.16298.45628-1.18602 1.81284h2.3275z"/><path d="m190.77723 108.57166c0 1.34734.52389 1.97415 1.58547 1.97415.47933 0 1.00474-.23966 1.33505-.47933l.04609.86801c-.45628.21662-1.04929.3426-1.63155.3426-1.54091 0-2.33825-1.16452-2.33825-2.98811s.79888-2.98811 2.24761-2.98811c1.312 0 2.04175 1.04929 2.04175 2.76074v.51313h-3.28616v-.00308zm2.32751-.72974c0-1.20907-.3764-1.81284-1.14147-1.81284-.61606 0-1.16298.45628-1.18603 1.81284h2.32751z"/><path d="m195.1219 106.63285c0-.42248-.0338-.84343-.04609-1.25516h.92331l.03379.91257h.02305c.30726-.70824.79889-.99246 1.6546-.99246v.94636c-.11369-.02304-.23965-.0338-.36564-.0338-.74203 0-1.26591.6391-1.26591 1.90655v3.08029h-.95865v-4.56283l.00154-.00154z"/><path d="m199.59254 102.98105v1.13994h-1.04929v-1.13994zm-1.00321 2.3951h.95865v5.81798h-.95865z"/><path d="m201.02898 106.63285c0-.42248-.03379-.84343-.04608-1.25516h.92332l.03379.86647h.02305c.30726-.66215.79887-.94636 1.47177-.94636 1.0155 0 1.69916.58072 1.69916 1.85893v4.03895h-.95867v-3.75319c0-.92332-.34259-1.32276-.95865-1.32276-.75277 0-1.2321.52542-1.2321 1.57471v3.50124h-.95867v-4.56283z"/><path d="m210.713 111.44609c0 1.60851-1.20976 2.28141-2.48796 2.28141-.49009 0-1.27822-.18282-1.69916-.35335l.0461-.96941c.41172.27346 1.07234.50237 1.59774.50237 1.17528 0 1.63155-.69595 1.63155-1.69915v-.91257h-.02303c-.37641.66215-.88953.9817-1.52863.9817-1.19831 0-2.00794-.9817-2.00794-2.98811s.80964-2.98811 2.11088-2.98811c.58073 0 1.10613.3641 1.4257.92332h.02303l.03381-.84497h.9228c-.0123.3426-.04558.70824-.04558 1.06159v5.00835zm-2.23602-.94636c.87878 0 1.27822-.75279 1.27822-2.21228s-.39944-2.21382-1.27822-2.21382-1.2782.75279-1.2782 2.21382.39944 2.21228 1.2782 2.21228z"/><path d="m38.45112 56.226h18.33053c6.82435 0 12.38288 3.08226 12.38288 9.68665 0 5.11864-2.42244 8.53158-7.37497 9.68665v.11074c3.3022.88131 3.52214 3.79745 5.44933 8.47621l3.81899 10.49105h-10.76638l-2.18865-6.96891c-2.09175-6.6044-3.41294-8.25627-7.2104-8.25627h-2.13636v15.22518h-10.30496v-38.4513zm10.30495 15.96056h2.68698c3.3022 0 7.4857-.11074 7.4857-4.45881 0-3.57751-3.57751-4.23733-7.4857-4.23733h-2.68698v8.69615z"/><path d="m76.13339 56.22644h10.30495v38.4513h-10.30495z"/><path d="m93.93173 85.22179c2.64237 1.43039 6.32908 2.53164 10.56795 2.53164 3.24683 0 6.32908-.66137 6.32908-3.74362 0-7.15502-18.16286-2.64237-18.16286-16.62019 0-9.24677 9.02683-11.7784 16.73093-11.7784 3.68671 0 7.31959.55062 9.90659 1.43039l-.65982 7.92558c-2.64238-1.21045-5.61389-1.76107-8.53004-1.76107-2.587 0-6.8797.21994-6.8797 3.57751 0 6.21835 18.16285 2.03638 18.16285 15.905 0 9.96196-8.36546 12.65817-16.8955 12.65817-3.57751 0-8.03478-.54909-11.44772-1.65033l.8813-8.4762-.00307.00153z"/><path d="m127.19672 56.22644h27.06972v7.38265h-16.91857v7.84407h15.84194v7.38265h-15.84194v8.61309h17.53379v7.22885h-27.68494v-38.4513z"/><path d="m172.26165 56.22644h38.4513v38.4513h-38.4513z"/></g><path d="m174.26112 63.30148h29.37679v6.30601h-29.37679z" fill="#fff203"/><path d="m174.26112 70.99174h29.37679v6.30601h-29.37679z" fill="#fff203"/><path d="m174.26112 78.682h29.37679v6.30601h-29.37679z" fill="#fff203"/><path d="m174.26112 86.37226h29.37679v6.30601h-29.37679z" fill="#fff203"/><path d="m43.47754 39.98604c-.62793-.21436-1.08789-.33691-1.83887-.33691-.55078 0-1.20996.19922-1.20996.87305 0 1.25635 3.56934.45996 3.56934 3.30957 0 1.83789-1.63867 2.57324-3.30859 2.57324-.78125 0-1.57812-.1377-2.3291-.33691l.12305-1.68506c.64355.32178 1.31738.521 2.02148.521.52148 0 1.34863-.19922 1.34863-.96533 0-1.54736-3.56934-.49023-3.56934-3.33984 0-1.7002 1.48535-2.45117 3.09473-2.45117.96484 0 1.59277.15332 2.23633.2915l-.1377 1.54688z" fill="#1c3f94"/><path d="m45.5918 38.33174h1.96094v1.11816h.03125c.45898-.76562 1.24121-1.30225 2.45117-1.30225 2.41992 0 3.30859 1.93066 3.30859 4.10596 0 2.16016-.88867 4.15137-3.35449 4.15137-.87305 0-1.59375-.21436-2.31348-1.0874h-.03027v4.12109h-2.05371zm2.06836 3.92188c0 1.11816.44434 2.55859 1.80762 2.55859 1.34863 0 1.73145-1.4707 1.73145-2.55859 0-1.05713-.36719-2.5127-1.7002-2.5127-1.31738 0-1.83887 1.40967-1.83887 2.5127z" fill="#1c3f94"/><path d="m58.56934 38.14766c2.34375 0 4.13574 1.57812 4.13574 4.18262 0 2.26709-1.5166 4.07471-4.13574 4.07471-2.60449 0-4.12109-1.80762-4.12109-4.07471 0-2.60449 1.79199-4.18262 4.12109-4.18262zm0 6.66455c1.57812 0 1.99121-1.40967 1.99121-2.72705 0-1.21045-.64355-2.34424-1.99121-2.34424-1.33301 0-1.97656 1.16455-1.97656 2.34424 0 1.30225.41406 2.72705 1.97656 2.72705z" fill="#1c3f94"/><path d="m64.31445 38.33174h1.94629v1.07227h.03027c.64355-.90381 1.5166-1.25635 2.58887-1.25635 1.86914 0 2.68164 1.31787 2.68164 3.09473v4.979h-2.05273v-4.21289c0-.96533-.01562-2.26758-1.33301-2.26758-1.48633 0-1.80762 1.60889-1.80762 2.62012v3.86035h-2.05371z" fill="#1c3f94"/><path d="m78.36426 39.98604c-.62793-.21436-1.08789-.33691-1.83887-.33691-.55078 0-1.20996.19922-1.20996.87305 0 1.25635 3.56934.45996 3.56934 3.30957 0 1.83789-1.63867 2.57324-3.30859 2.57324-.78125 0-1.57812-.1377-2.3291-.33691l.12305-1.68506c.64355.32178 1.31738.521 2.02148.521.52148 0 1.34863-.19922 1.34863-.96533 0-1.54736-3.56934-.49023-3.56934-3.33984 0-1.7002 1.48535-2.45117 3.09473-2.45117.96484 0 1.59277.15332 2.23633.2915l-.1377 1.54688z" fill="#1c3f94"/><path d="m84.09473 38.14766c2.34375 0 4.13574 1.57812 4.13574 4.18262 0 2.26709-1.5166 4.07471-4.13574 4.07471-2.60449 0-4.12109-1.80762-4.12109-4.07471 0-2.60449 1.79199-4.18262 4.12109-4.18262zm0 6.66455c1.57812 0 1.99121-1.40967 1.99121-2.72705 0-1.21045-.64355-2.34424-1.99121-2.34424-1.33301 0-1.97656 1.16455-1.97656 2.34424 0 1.30225.41406 2.72705 1.97656 2.72705z" fill="#1c3f94"/><path d="m89.88574 38.33174h1.82324v1.79248h.03125c.0918-.73535.93457-1.97656 2.16016-1.97656.19922 0 .41309 0 .62793.06152v2.06787c-.18359-.10693-.55176-.16846-.91895-.16846-1.66992 0-1.66992 2.0835-1.66992 3.21729v2.89551h-2.05371z" fill="#1c3f94"/><path d="m101.85156 45.77705c-.75.41357-1.6084.62793-2.71094.62793-2.60449 0-4.12109-1.50098-4.12109-4.09033 0-2.28271 1.20996-4.16699 3.66113-4.16699 2.92578 0 3.75391 2.00732 3.75391 4.76465h-5.4541c.0918 1.27148.98047 1.9917 2.25195 1.9917.99512 0 1.85352-.36768 2.61914-.79688zm-1.37793-4.27441c-.06152-.99561-.52148-1.85352-1.66992-1.85352-1.14941 0-1.73145.79688-1.82324 1.85352z" fill="#1c3f94"/><path d="m109.29785 45.33272h-.03027c-.61328.76611-1.45508 1.07227-2.4209 1.07227-2.41992 0-3.30859-1.99121-3.30859-4.15137 0-2.17529.88867-4.10596 3.30859-4.10596 1.02637 0 1.74707.35254 2.35938 1.10303h.03125v-4.51904h2.05273v11.48975h-1.99219v-.88867zm-1.88379-.52051c1.36328 0 1.80762-1.44043 1.80762-2.55859 0-1.10303-.52148-2.5127-1.83887-2.5127-1.33301 0-1.7002 1.45557-1.7002 2.5127 0 1.08789.38281 2.55859 1.73145 2.55859z" fill="#1c3f94"/><path d="m117.2041 34.73164h2.05371v4.61133h.03027c.56641-.75098 1.28711-1.19531 2.35938-1.19531 2.41992 0 3.30859 1.93066 3.30859 4.10596 0 2.16016-.88867 4.15137-3.30859 4.15137-.87305 0-1.82324-.30615-2.4209-1.14893h-.03027v.96533h-1.99219zm3.87598 10.08057c1.34863 0 1.73145-1.4707 1.73145-2.55859 0-1.05713-.36719-2.5127-1.7002-2.5127-1.31738 0-1.83887 1.40967-1.83887 2.5127 0 1.11816.44434 2.55859 1.80762 2.55859z" fill="#1c3f94"/><path d="m129.84473 44.09199h.03027l1.89941-5.76025h2.08398l-2.95703 7.82812c-.65918 1.74658-1.13379 3.4624-3.27832 3.4624-.49023 0-.98047-.07666-1.45508-.21436l.1377-1.5166c.25977.0918.55078.1377 1.05664.1377.82715 0 1.33301-.56689 1.33301-1.40918l-3.01758-8.28809h2.2666l1.90039 5.76025z" fill="#1c3f94"/></svg>